<?xml version="1.0" encoding="utf-8"?>
<!-- Generator: Adobe Illustrator 16.0.0, SVG Export Plug-In . SVG Version: 6.00 Build 0)  -->
<!DOCTYPE svg PUBLIC "-//W3C//DTD SVG 1.1//EN" "http://www.w3.org/Graphics/SVG/1.1/DTD/svg11.dtd">
<svg version="1.1" id="Camada_1" xmlns="http://www.w3.org/2000/svg" xmlns:xlink="http://www.w3.org/1999/xlink" x="0px" y="0px"
	 width="637.8px" height="254px" viewBox="0 0 637.8 254" enable-background="new 0 0 637.8 254" xml:space="preserve">
<path fill="#EE893E" d="M539.201,99.033c0,0-11.362-5.796-19.654-6.394c-11.046-0.797-39.583-0.084-39.583-0.084v29.487
	l24.391-0.367c0,0,10.378,0.266,16.421,3.744c0,0,1.892-2.366,9.083-14.764C533.002,105.233,539.201,99.033,539.201,99.033z"/>
<path fill="#EE893E" d="M556.213,139.001c0,0,11.017,16.351,23.779,17.386c11.46,0.932,27.348-0.43,27.348-0.43v30.288
	c0,0-26.314,0.464-35.152-0.169c-11.069-0.792-21.797-6.502-32.294-19.075c0,0,6.967-10.313,9.96-15.571
	C553.318,145.334,554.366,142.806,556.213,139.001z"/>
<circle fill="#EE893E" cx="251.533" cy="57.939" r="14.699"/>
<circle fill="#EE893E" cx="425.295" cy="57.939" r="14.698"/>
<path fill="#EE893E" d="M607.344,92.781v31.005c0,0-22.299-0.761-31.215-0.554c-17.064,0.416-22.389,10.06-30.295,24.361
	c-17.144,31.002-41.661,37.193-59.255,38.656c-31.408,2.61-53.025-18.109-53.025-18.109c-15.845,15.146-35.633,19.708-51.287,18.808
	c-24.359-1.398-43.573-15.204-48.838-21.71c-12.403,16.586-31.063,20.411-41.13,20.312c-45.731-0.447-50.954-45.768-51.728-57.422
	c-0.194-3.059-2.311-14.811-15.572-14.811c-8.139,0-12.167,6.257-12.914,13.579c-0.706,6.893-1.952,10.844-4.664,22.582
	c-3.238,13.981-14.289,36.666-36.561,36.666c-13.857,0-23.953-9.422-26.662-15.414c-2.271-5.025-5.334-12.224-14.652-12.224
	c-9.992,0-12.089,7.841-14.571,12.174c-7.255,12.658-19.478,15.95-27.353,15.656C41.714,184.635,25.591,84.345,25.591,84.345
	l37.816,0.065c0,0,3.54,28.038,5.438,38.453c4.902,26.894,17.347,30.782,22.605,30.782c4.316,0,13.147-0.582,19.127-9.993
	c2.712-4.262,3.169-25.039,3.169-25.039h28.084c0,0-0.282,18.1,3.911,24.785c6.742,10.741,16.236,10.021,16.236,10.021
	c8.319,0.375,12.209-3.06,16.25-7.362c7.612-8.14,14.299-62.204,14.299-62.204l72.227,0.069c0,0-3.94,72.229,28.99,72.229
	c13.259,0,19.27-10.835,19.655-16.603c1.634-24.371-0.239-96.717-0.239-96.717l31.915,0.115l0.069,22.414h27.379v27.932h-27.298
	l0.057,20.361c-0.027,30.63,22.285,41.721,37.684,41.724c35.609,0.011,34.652-41.876,34.652-41.876l-25.014,0.068V83.784
	l59.756,0.139c0,0-2.358,38.292,0.374,46.784c9.125,28.353,43.498,34.968,61.593,13.194c9.081-10.928,18.613-27.975,23.359-35.159
	c11.018-16.665,28.549-15.851,28.549-15.851L607.344,92.781z"/>
<g>
	<path fill="#6D6E6D" d="M401.929,228.832c-0.815,0.425-2.623,0.992-4.927,0.992c-5.176,0-8.543-3.509-8.543-8.755
		c0-5.282,3.616-9.11,9.216-9.11c1.844,0,3.475,0.461,4.325,0.887l-0.709,2.41c-0.744-0.426-1.914-0.815-3.616-0.815
		c-3.934,0-6.061,2.906-6.061,6.486c0,3.971,2.552,6.416,5.955,6.416c1.771,0,2.941-0.461,3.828-0.851L401.929,228.832z"/>
	<path fill="#6D6E6D" d="M420.896,220.75c0,6.345-4.396,9.109-8.543,9.109c-4.644,0-8.224-3.402-8.224-8.826
		c0-5.742,3.758-9.109,8.508-9.109C417.563,211.924,420.896,215.504,420.896,220.75z M407.284,220.927
		c0,3.758,2.162,6.594,5.21,6.594c2.978,0,5.211-2.801,5.211-6.664c0-2.906-1.453-6.593-5.14-6.593S407.284,217.666,407.284,220.927
		z M417.174,204.905l-4.325,5.069h-2.232l3.119-5.069H417.174z"/>
	<path fill="#6D6E6D" d="M439.65,204.303v20.736c0,1.524,0.035,3.261,0.142,4.431h-2.8l-0.143-2.978h-0.07
		c-0.957,1.914-3.049,3.367-5.849,3.367c-4.147,0-7.338-3.509-7.338-8.72c-0.035-5.707,3.51-9.216,7.692-9.216
		c2.623,0,4.396,1.24,5.175,2.623h0.071v-10.244H439.65z M436.531,219.297c0-0.39-0.036-0.922-0.143-1.312
		c-0.46-1.985-2.162-3.615-4.501-3.615c-3.226,0-5.14,2.835-5.14,6.628c0,3.474,1.701,6.345,5.068,6.345
		c2.092,0,4.006-1.382,4.572-3.722c0.106-0.426,0.143-0.851,0.143-1.347V219.297z"/>
	<path fill="#6D6E6D" d="M448.303,207.493c0.035,1.063-0.744,1.914-1.985,1.914c-1.099,0-1.879-0.851-1.879-1.914
		c0-1.099,0.815-1.949,1.95-1.949C447.559,205.544,448.303,206.395,448.303,207.493z M444.829,229.47v-17.156h3.119v17.156H444.829z
		"/>
	<path fill="#6D6E6D" d="M467.905,212.313c-0.07,1.241-0.142,2.623-0.142,4.715v9.96c0,3.935-0.779,6.345-2.445,7.834
		c-1.666,1.56-4.076,2.056-6.238,2.056c-2.057,0-4.325-0.496-5.707-1.418l0.779-2.375c1.135,0.709,2.907,1.348,5.033,1.348
		c3.19,0,5.53-1.666,5.53-5.991v-1.914h-0.071c-0.957,1.596-2.8,2.871-5.459,2.871c-4.253,0-7.302-3.615-7.302-8.365
		c0-5.813,3.793-9.109,7.728-9.109c2.978,0,4.608,1.56,5.353,2.978h0.07l0.143-2.588H467.905z M464.68,219.084
		c0-0.531-0.035-0.992-0.177-1.418c-0.567-1.808-2.092-3.296-4.36-3.296c-2.977,0-5.104,2.517-5.104,6.486
		c0,3.367,1.701,6.168,5.068,6.168c1.914,0,3.651-1.206,4.324-3.19c0.178-0.532,0.248-1.135,0.248-1.666V219.084z"/>
	<path fill="#6D6E6D" d="M488.469,220.75c0,6.345-4.396,9.109-8.543,9.109c-4.644,0-8.224-3.402-8.224-8.826
		c0-5.742,3.758-9.109,8.508-9.109C485.137,211.924,488.469,215.504,488.469,220.75z M474.857,220.927
		c0,3.758,2.162,6.594,5.21,6.594c2.978,0,5.211-2.801,5.211-6.664c0-2.906-1.453-6.593-5.14-6.593S474.857,217.666,474.857,220.927
		z"/>
	<path fill="#6D6E6D" d="M512.151,228.832c-0.815,0.425-2.623,0.992-4.927,0.992c-5.176,0-8.543-3.509-8.543-8.755
		c0-5.282,3.616-9.11,9.216-9.11c1.844,0,3.475,0.461,4.325,0.887l-0.709,2.41c-0.744-0.426-1.914-0.815-3.616-0.815
		c-3.934,0-6.061,2.906-6.061,6.486c0,3.971,2.552,6.416,5.955,6.416c1.771,0,2.941-0.461,3.828-0.851L512.151,228.832z"/>
	<path fill="#6D6E6D" d="M515.806,217.666c0-2.021-0.036-3.757-0.143-5.353h2.729l0.106,3.368h0.142
		c0.78-2.305,2.659-3.758,4.75-3.758c0.354,0,0.603,0.035,0.887,0.106v2.942c-0.319-0.071-0.639-0.106-1.063-0.106
		c-2.198,0-3.758,1.666-4.183,4.005c-0.071,0.426-0.143,0.922-0.143,1.453v9.146h-3.083V217.666z"/>
	<path fill="#6D6E6D" d="M531.014,207.493c0.035,1.063-0.744,1.914-1.985,1.914c-1.099,0-1.879-0.851-1.879-1.914
		c0-1.099,0.815-1.949,1.95-1.949C530.27,205.544,531.014,206.395,531.014,207.493z M527.54,229.47v-17.156h3.119v17.156H527.54z"/>
	<path fill="#6D6E6D" d="M545.335,229.47l-0.248-2.162h-0.106c-0.957,1.347-2.8,2.552-5.246,2.552c-3.474,0-5.246-2.445-5.246-4.927
		c0-4.147,3.687-6.416,10.315-6.38v-0.354c0-1.418-0.39-3.971-3.899-3.971c-1.595,0-3.261,0.497-4.466,1.276l-0.709-2.056
		c1.418-0.922,3.474-1.524,5.636-1.524c5.246,0,6.522,3.58,6.522,7.019v6.416c0,1.488,0.07,2.941,0.283,4.111H545.335z
		 M544.874,220.715c-3.402-0.071-7.266,0.531-7.266,3.863c0,2.021,1.347,2.978,2.941,2.978c2.233,0,3.651-1.418,4.147-2.871
		c0.106-0.319,0.177-0.674,0.177-0.992V220.715z"/>
	<path fill="#6D6E6D" d="M556.539,207.387v4.927h4.467v2.375h-4.467v9.252c0,2.126,0.603,3.332,2.34,3.332
		c0.815,0,1.418-0.106,1.808-0.213l0.142,2.339c-0.603,0.248-1.56,0.426-2.765,0.426c-1.453,0-2.623-0.461-3.367-1.312
		c-0.887-0.922-1.205-2.446-1.205-4.466v-9.358h-2.659v-2.375h2.659v-4.111L556.539,207.387z"/>
	<path fill="#6D6E6D" d="M567.991,207.493c0.035,1.063-0.744,1.914-1.985,1.914c-1.099,0-1.879-0.851-1.879-1.914
		c0-1.099,0.815-1.949,1.95-1.949C567.247,205.544,567.991,206.395,567.991,207.493z M564.518,229.47v-17.156h3.119v17.156H564.518z
		"/>
	<path fill="#6D6E6D" d="M574.019,212.313l3.367,9.642c0.567,1.56,1.028,2.978,1.383,4.396h0.105
		c0.391-1.418,0.887-2.836,1.454-4.396l3.332-9.642h3.261l-6.735,17.156h-2.978l-6.521-17.156H574.019z"/>
	<path fill="#6D6E6D" d="M605.037,220.75c0,6.345-4.396,9.109-8.543,9.109c-4.644,0-8.224-3.402-8.224-8.826
		c0-5.742,3.758-9.109,8.508-9.109C601.705,211.924,605.037,215.504,605.037,220.75z M591.426,220.927
		c0,3.758,2.162,6.594,5.21,6.594c2.978,0,5.211-2.801,5.211-6.664c0-2.906-1.453-6.593-5.14-6.593S591.426,217.666,591.426,220.927
		z"/>
</g>
</svg>
